<?xml version="1.0" encoding="UTF-8" standalone="no"?>
<svg
   width="900px"
   height="900px"
   viewBox="0 0 900 900"
   version="1.1"
   xml:space="preserve"
   id="SVGRoot"
   sodipodi:docname="drawing-1.svg"
   inkscape:export-filename="Crossive_Icon.svg"
   inkscape:export-xdpi="96"
   inkscape:export-ydpi="96"
   inkscape:version="1.3.2 (091e20e, 2023-11-25, custom)"
   xmlns:inkscape="http://www.inkscape.org/namespaces/inkscape"
   xmlns:sodipodi="http://sodipodi.sourceforge.net/DTD/sodipodi-0.dtd"
   xmlns="http://www.w3.org/2000/svg"
   xmlns:svg="http://www.w3.org/2000/svg"><defs
   id="defs2" />
<sodipodi:namedview
   pagecolor="#a9a9a9"
   bordercolor="#292929"
   borderopacity="1"
   inkscape:showpageshadow="2"
   inkscape:pageopacity="0.0"
   inkscape:pagecheckerboard="0"
   inkscape:deskcolor="#232323"
   id="namedview1"
   inkscape:zoom="0.64503851"
   inkscape:cx="322.46137"
   inkscape:cy="447.26012"
   inkscape:window-width="1920"
   inkscape:window-height="1017"
   inkscape:window-x="-8"
   inkscape:window-y="-8"
   inkscape:window-maximized="1"
   inkscape:current-layer="layer1" />
<style
   type="text/css"
   id="style1">
g.prefab path {
  vector-effect:non-scaling-stroke;
  -inkscape-stroke:hairline;
  fill: none;
  fill-opacity: 1;
  stroke-opacity: 1;
  stroke: #00349c;
}
</style>
<g
   inkscape:label="Droplet"
   style="display:none;fill:#ffffff;stroke:#000000;stroke-width:2"
   class="prefab"
   id="g2">
  <path
   d="M 853.57143,50.000001 H 53.571427 V 138.88889 H 853.57143 Z m 0,177.777779 H 53.571427 v 88.88889 H 853.57143 Z m 0,177.77778 H 53.571427 v 88.88889 H 853.57143 Z m 0,177.77777 H 53.571427 v 88.88889 H 853.57143 Z m 0,177.77778 H 53.571427 V 850 H 853.57143 Z M 53.571427,50 V 850 H 142.46032 V 50 Z M 231.34921,50 V 850 H 320.2381 V 50 Z m 177.77778,0 v 800 h 88.88888 V 50 Z m 177.77777,0 v 800 h 88.88889 V 50 Z m 177.77778,0 v 800 h 88.88889 V 50 Z"
   id="path1" />
  <path
   d="M 450,50 A 400,400 0 0 0 50,450 400,400 0 0 0 450,850 400,400 0 0 0 850,450 400,400 0 0 0 450,50 Z m 0,88.88867 A 311.11111,311.11111 0 0 1 761.11133,450 311.11111,311.11111 0 0 1 450,761.11133 311.11111,311.11111 0 0 1 138.88867,450 311.11111,311.11111 0 0 1 450,138.88867 Z m 0,88.88867 A 222.22223,222.22223 0 0 0 227.77734,450 222.22223,222.22223 0 0 0 450,672.22266 222.22223,222.22223 0 0 0 672.22266,450 222.22223,222.22223 0 0 0 450,227.77734 Z m 0,88.88868 A 133.33333,133.33333 0 0 1 583.33398,450 133.33333,133.33333 0 0 1 450,583.33398 133.33333,133.33333 0 0 1 316.66602,450 133.33333,133.33333 0 0 1 450,316.66602 Z m 0,88.88867 A 44.444447,44.444447 0 0 0 405.55469,450 44.444447,44.444447 0 0 0 450,494.44531 44.444447,44.444447 0 0 0 494.44531,450 44.444447,44.444447 0 0 0 450,405.55469 Z"
   id="path2" />
</g>
<g
   inkscape:groupmode="layer"
   id="layer1"
   inkscape:label="C"><path
     d="M 453.57227,50 A 400,400 0 0 0 53.572266,450 400,400 0 0 0 453.57227,850 400,400 0 0 0 736.41211,732.8418 L 656.5957,653.02539 a 288.21774,288.21774 0 0 1 -96.91601,62.625 L 451.34375,823.98633 c -0.7443,0.7443 -1.34998,1.33752 -1.35742,1.33008 L 334.41797,709.74805 a 288.21774,288.21774 0 0 1 -167.7207,-261.0918 288.21774,288.21774 0 0 1 288.21679,-288.2168 288.21774,288.21774 0 0 1 203.70117,84.51563 L 736.41211,167.1582 A 400,400 0 0 0 453.57227,50 Z"
     style="fill:#ff6a00;stroke:none;stroke-linecap:round;stroke-linejoin:round;fill-opacity:1"
     id="path7" /></g><g
   inkscape:groupmode="layer"
   id="layer3"
   inkscape:label="sparks"><path
     style="fill:#ff6a00;stroke:none;stroke-linecap:round;stroke-linejoin:round;fill-opacity:1"
     d="m 687.40816,572.41843 -14.7278,-14.7278 -170.35605,180.01063 z"
     id="path3" /><path
     style="fill:#ff6a00;stroke:none;stroke-linecap:round;stroke-linejoin:round;fill-opacity:1"
     d="M 627.36099,530.14727 609.3232,519.73314 491.36207,737.70145 Z"
     id="path3-8" /><path
     style="fill:#ff6a00;stroke:none;stroke-linecap:round;stroke-linejoin:round;fill-opacity:1"
     d="m 295.98771,518.68246 -18.03779,10.41412 129.78552,211.14148 z"
     id="path3-8-5" /><path
     style="fill:#ff6a00;stroke:none;stroke-linecap:round;stroke-linejoin:round;fill-opacity:1"
     d="m 229.21011,555.15404 -14.72779,14.7278 180.01062,170.35604 z"
     id="path3-1" /></g><g
   inkscape:groupmode="layer"
   id="layer2"
   inkscape:label="Droplet"><path
     d="m 450.001,459.81656 c -11.16042,0 -22.32136,7.01332 -30.87305,21.0371 l -33.20507,54.45118 c -8.35617,13.70315 -12.59997,31.49187 -12.79102,49.37304 -0.009,0.83678 -0.009,1.67104 0,2.50782 0.70389,40.7882 34.89641,73.51075 76.86914,73.56445 41.97197,-0.0547 76.16331,-32.77698 76.86719,-73.56445 0.0243,-2.2705 -0.0176,-4.53935 -0.125,-6.80469 -0.77792,-16.41008 -4.97985,-32.47174 -12.66602,-45.07617 l -33.20508,-54.45118 c -8.55168,-14.02378 -19.71067,-21.0371 -30.87109,-21.0371 z"
     style="fill:#ff6a00;stroke:none;stroke-width:1.68045;stroke-linecap:round;stroke-linejoin:round;fill-opacity:1"
     id="path6" /></g></svg>
